<svg width="100%" height="40" viewBox="0 0 90 40" fill="none" xmlns="http://www.w3.org/2000/svg">
<path d="M3.76646 4.09161H2.0487C0.914036 4.09161 0 3.18236 0 2.05364C0 0.924923 0.914036 0 2.0487 0H5.83092C6.96559 0 7.87962 0.924923 7.87962 2.05364V17.307H3.76646V4.09161Z" fill="white"/>
<path d="M27.7184 8.71626C27.7184 13.482 23.8101 17.3541 19.0193 17.3541C17.9319 17.3541 17.8689 17.3541 17.8689 17.3541C16.7184 17.3541 15.7886 16.4449 15.7886 15.3005C15.7886 14.2031 16.6396 13.2311 17.7428 13.2311H19.0193C21.4935 13.2155 23.5264 11.1932 23.5264 8.73194C23.5264 6.2707 21.525 4.24841 19.0508 4.24841C16.5136 4.24841 14.5437 4.24841 14.5437 4.24841H14.5279V17.2757H10.3359V0.0627441L19.035 0.0784208C23.8259 0.0940975 27.7184 3.96623 27.7184 8.71626Z" fill="white"/>
<path d="M47.025 8.71614V17.354H42.8488V14.689H37.601C37.538 14.689 37.4749 14.7046 37.4119 14.7046C36.2615 14.7046 35.3317 13.7484 35.3317 12.604C35.3317 11.5066 36.1984 10.5973 37.2858 10.5346H42.8488V8.71614C42.8488 6.25491 40.8316 4.23262 38.3417 4.23262C35.8517 4.23262 33.8345 6.23923 33.8345 8.71614C33.8345 11.2401 33.8345 13.1997 33.8345 13.1997V17.3383H29.6426V8.71614C29.6426 3.93476 33.5351 0.0626221 38.3417 0.0626221C43.1325 0.0626221 47.025 3.93476 47.025 8.71614Z" fill="white"/>
<path d="M63.5243 3.57437L58.3868 8.70063L57.5673 9.50014V17.4012H53.4384V9.50014L52.6347 8.70063L47.4814 3.57437C46.725 2.79053 46.725 1.50505 47.4814 0.721214C48.2851 -0.0782954 49.5616 -0.0782954 50.3811 0.721214L55.5186 5.8318L60.6719 0.721214C61.4598 -0.0782954 62.7521 -0.0782954 63.5401 0.721214C64.328 1.48937 64.328 2.79053 63.5243 3.57437Z" fill="white"/>
<path d="M17.4765 37.7023C17.4765 38.8467 16.5467 39.7716 15.3962 39.7716H15.3805H8.7616C3.95503 39.7716 0.0625 35.8995 0.0625 31.1181C0.0625 26.3524 3.95503 22.4646 8.7616 22.4646H15.3332V26.6503H13.2687C13.2687 26.6503 11.3146 26.6503 8.7616 26.6503C6.27164 26.6503 4.2387 28.6569 4.2387 31.1338C4.2387 33.6264 6.25588 35.633 8.7616 35.633H15.349H15.3647C16.5309 35.633 17.4765 36.5579 17.4765 37.7023Z" fill="white"/>
<path d="M22.8188 39.7874H18.6426V24.3772H18.6583C18.7529 23.3112 19.6669 22.4803 20.7386 22.4803C21.8259 22.4803 22.7242 23.3269 22.8188 24.3772V39.7874ZM33.0623 39.7874H22.803V35.6331L33.0623 35.6487V39.7874Z" fill="white"/>
<path d="M32.7168 30.8046C32.7168 25.7411 36.83 21.6338 41.8887 21.6338C46.9789 21.6338 51.1078 25.7411 51.1078 30.8046C51.1078 35.8525 46.9789 39.9285 41.8887 39.9285C36.83 39.9285 32.7168 35.8368 32.7168 30.8046ZM36.7354 30.8046C36.7354 33.6108 39.0363 35.9309 41.8887 35.9309C44.7411 35.9309 47.042 33.6108 47.042 30.8046C47.042 27.9672 44.7411 25.6784 41.8887 25.6784C39.052 25.6784 36.7354 27.9672 36.7354 30.8046Z" fill="white"/>
<path d="M70.3662 24.6281V31.1966C70.3662 35.9309 66.4736 39.7874 61.7143 39.7874C56.9235 39.7874 53.0625 35.9309 53.0625 31.1966V29.0489V24.6124V24.5967V24.581C53.0625 23.4366 53.9765 22.5117 55.127 22.5117C56.2774 22.5117 57.2072 23.4366 57.2072 24.581V24.5967V26.4936V26.7131C57.2072 26.7131 57.2072 28.657 57.2072 31.1966C57.2072 33.6422 59.2244 35.6488 61.7143 35.6488C64.1728 35.6488 66.19 33.6422 66.19 31.1966V24.6437C66.19 24.6437 66.19 24.6437 66.19 24.6281C66.19 23.4837 67.1198 22.5587 68.2702 22.5587C69.4206 22.5587 70.3504 23.4837 70.3504 24.6281C70.3662 24.6281 70.3662 24.6281 70.3662 24.6281Z" fill="white"/>
<path d="M89.9995 31.1965C89.9995 35.9622 86.0912 39.8343 81.3004 39.8343C80.213 39.8343 80.15 39.8343 80.15 39.8343C78.9995 39.8343 78.0698 38.9251 78.0698 37.7807C78.0698 36.6833 78.9207 35.7114 80.0239 35.7114H81.3004C83.7746 35.6957 85.8075 33.6734 85.8075 31.2122C85.8075 28.7509 83.8061 26.7286 81.3319 26.7286C78.7947 26.7286 76.8248 26.7286 76.8248 26.7286H76.809V39.7559H72.6328V22.543L81.3319 22.5586C86.107 22.5586 89.9995 26.4308 89.9995 31.1965Z" fill="white"/>
<path d="M88.0448 6.47446C86.8314 5.26736 85.1924 4.59326 83.4589 4.59326C83.4274 4.59326 83.3959 4.59326 83.3486 4.59326C82.7655 3.51157 81.9145 2.57097 80.8744 1.83417C79.5191 0.89357 77.9432 0.407593 76.3042 0.407593C76.2254 0.407593 76.1466 0.423269 76.0521 0.423269C75.9733 0.423269 75.9102 0.407593 75.8314 0.407593C74.4288 0.407593 73.0893 0.862216 71.9546 1.6774C71.6552 1.86552 71.3558 2.085 71.0721 2.32015C69.9059 3.32345 69.0549 4.62462 68.6137 6.09822C67.5105 6.3177 66.4704 6.86638 65.6825 7.65021C64.5793 8.74758 63.9805 10.1898 63.9805 11.7261C63.9805 13.2468 64.5951 14.7204 65.6982 15.8021C66.8014 16.8681 68.2512 17.4638 69.7799 17.4638H83.4589C85.1767 17.4638 86.7999 16.8054 88.0448 15.5826C89.2583 14.3755 89.9359 12.7451 89.9359 11.0207C89.9359 9.34329 89.2741 7.71292 88.0448 6.47446ZM85.9646 13.5917C85.2712 14.2814 84.3572 14.6577 83.3801 14.6577H69.7799C68.9919 14.6577 68.2355 14.3442 67.6839 13.7798C67.1166 13.2154 66.8014 12.4786 66.8014 11.6948C66.8014 10.9423 67.1008 10.2055 67.6524 9.64115C68.1882 9.10814 68.8658 8.81029 69.5908 8.77893C69.7011 9.10814 69.8429 9.48438 70.0478 9.89198C70.426 10.6131 70.9303 11.2402 71.5449 11.7732C72.1438 12.2592 72.9948 12.1964 73.5148 11.6164C73.9718 11.0521 73.9246 10.1585 73.3887 9.6725C72.9948 9.32762 72.6953 8.90435 72.4747 8.41837C72.2698 7.97942 72.1595 7.46209 72.1595 6.94476C72.1595 5.97281 72.5377 5.04789 73.2311 4.37379C73.9246 3.68402 74.8386 3.32345 75.8157 3.32345C76.7927 3.32345 77.7225 3.69969 78.4002 4.37379C78.8572 4.82841 79.1881 5.40845 79.3457 6.01984C79.0621 6.25499 78.7942 6.50582 78.542 6.788C78.0535 7.38371 78.1165 8.23025 78.6996 8.74758C79.2669 9.2022 80.1652 9.15517 80.6538 8.62217C81.0005 8.23025 81.426 7.93239 81.9145 7.71292C82.3558 7.50912 82.8758 7.39939 83.3959 7.39939C84.3729 7.39939 85.3027 7.77563 85.9804 8.4654C86.6738 9.15517 87.0363 10.0644 87.0363 11.0364C87.0363 11.9927 86.658 12.9019 85.9646 13.5917Z" fill="white"/>
</svg>